<svg width="27" height="23" viewBox="0 0 27 23" fill="none" xmlns="http://www.w3.org/2000/svg">
<path d="M26.0462 14.3485C26.0439 16.4032 25.2266 18.3731 23.7737 19.826C22.3208 21.2789 20.3509 22.0962 18.2962 22.0985H7.29622C7.0973 22.0985 6.90654 22.0195 6.76589 21.8788C6.62523 21.7382 6.54622 21.5474 6.54622 21.3485C6.54622 21.1496 6.62523 20.9588 6.76589 20.8181C6.90654 20.6775 7.0973 20.5985 7.29622 20.5985H18.2962C19.9538 20.5985 21.5435 19.94 22.7156 18.7679C23.8877 17.5958 24.5462 16.0061 24.5462 14.3485C24.5462 12.6909 23.8877 11.1012 22.7156 9.92906C21.5435 8.75696 19.9538 8.09848 18.2962 8.09848H3.10747L7.82621 12.8185C7.8999 12.8871 7.959 12.9699 8 13.0619C8.04099 13.1539 8.06303 13.2533 8.06481 13.354C8.06658 13.4547 8.04806 13.5547 8.01034 13.6481C7.97262 13.7415 7.91647 13.8263 7.84525 13.8975C7.77403 13.9687 7.6892 14.0249 7.59581 14.0626C7.50242 14.1003 7.4024 14.1188 7.30169 14.1171C7.20099 14.1153 7.10168 14.0933 7.00968 14.0523C6.91768 14.0113 6.83488 13.9522 6.76622 13.8785L0.766215 7.87848C0.625765 7.73785 0.546875 7.54723 0.546875 7.34848C0.546875 7.14973 0.625765 6.9591 0.766215 6.81848L6.76622 0.818479C6.90839 0.685999 7.09644 0.613876 7.29074 0.617304C7.48504 0.620733 7.67042 0.699444 7.80784 0.836857C7.94525 0.97427 8.02396 1.15966 8.02739 1.35396C8.03082 1.54826 7.95869 1.7363 7.82621 1.87848L3.10747 6.59848H18.2962C20.3509 6.6008 22.3208 7.41805 23.7737 8.87096C25.2266 10.3239 26.0439 12.2938 26.0462 14.3485Z" fill="white"/>
</svg>
