<svg width="28" height="28" viewBox="0 0 28 28" fill="none" xmlns="http://www.w3.org/2000/svg">
<path d="M27.5709 10.862C27.4677 10.5341 27.2687 10.2446 26.9996 10.0308C26.7305 9.81694 26.4036 9.68849 26.0609 9.66196L18.6284 9.01946C18.5835 9.01504 18.5405 8.99852 18.5042 8.97167C18.4679 8.94482 18.4396 8.90863 18.4222 8.86696L15.5184 1.94696C15.3839 1.63127 15.1596 1.36209 14.8734 1.17289C14.5871 0.983687 14.2515 0.882812 13.9084 0.882812C13.5653 0.882812 13.2297 0.983687 12.9435 1.17289C12.6572 1.36209 12.4329 1.63127 12.2984 1.94696L9.39465 8.86696C9.37726 8.90863 9.34889 8.94482 9.31258 8.97167C9.27626 8.99852 9.23335 9.01504 9.1884 9.01946L1.7559 9.66196C1.41321 9.68849 1.08629 9.81694 0.817198 10.0308C0.548104 10.2446 0.349142 10.5341 0.245905 10.862C0.136567 11.1903 0.127016 11.5436 0.21846 11.8774C0.309904 12.2111 0.498237 12.5102 0.759654 12.737L6.3984 17.6557C6.43293 17.6864 6.45858 17.7258 6.47265 17.7697C6.48673 17.8137 6.48871 17.8607 6.4784 17.9057L4.7834 25.2195C4.70439 25.5562 4.72693 25.9088 4.84818 26.2327C4.96943 26.5566 5.18396 26.8374 5.46465 27.0395C5.741 27.2433 6.07212 27.3597 6.41526 27.3735C6.75841 27.3873 7.09781 27.298 7.38965 27.117L13.7784 23.242C13.816 23.2187 13.8592 23.2064 13.9034 23.2064C13.9476 23.2064 13.9909 23.2187 14.0284 23.242L20.4172 27.117C20.712 27.2975 21.0538 27.3866 21.3993 27.3731C21.7447 27.3596 22.0785 27.2441 22.3584 27.0411C22.6382 26.8381 22.8517 26.5568 22.9719 26.2325C23.092 25.9083 23.1134 25.5558 23.0334 25.2195L21.3434 17.9032C21.3331 17.8582 21.3351 17.8112 21.3492 17.7672C21.3632 17.7233 21.3889 17.6839 21.4234 17.6532L27.0622 12.7345C27.3222 12.5073 27.5093 12.2084 27.5998 11.8752C27.6903 11.542 27.6803 11.1894 27.5709 10.862ZM26.0709 11.602L20.4322 16.5207C20.1919 16.7298 20.0132 17.0004 19.9154 17.3035C19.8176 17.6066 19.8044 17.9306 19.8772 18.2407L21.5672 25.557C21.5796 25.6061 21.5769 25.6579 21.5593 25.7055C21.5416 25.753 21.5099 25.7941 21.4684 25.8232C21.4308 25.8533 21.3846 25.8706 21.3365 25.8726C21.2884 25.8747 21.2409 25.8613 21.2009 25.8345L14.8122 21.9595C14.5398 21.7939 14.2272 21.7063 13.9084 21.7063C13.5897 21.7063 13.277 21.7939 13.0047 21.9595L6.6159 25.8345C6.57592 25.8613 6.52842 25.8747 6.48031 25.8726C6.4322 25.8706 6.38599 25.8533 6.3484 25.8232C6.30688 25.7941 6.27519 25.753 6.25756 25.7055C6.23992 25.6579 6.23716 25.6061 6.24965 25.557L7.93965 18.2407C8.01241 17.9306 7.99918 17.6066 7.90138 17.3035C7.80358 17.0004 7.62492 16.7298 7.38465 16.5207L1.7459 11.602C1.70734 11.5692 1.67964 11.5254 1.66647 11.4765C1.6533 11.4277 1.65529 11.3759 1.67215 11.3282C1.68478 11.2807 1.71215 11.2384 1.75033 11.2074C1.78851 11.1764 1.83554 11.1583 1.88465 11.1557L9.3184 10.5132C9.63665 10.4861 9.9414 10.3724 10.1996 10.1844C10.4579 9.99649 10.6598 9.74145 10.7834 9.44696L13.6872 2.52696C13.7073 2.48401 13.7393 2.44769 13.7794 2.42225C13.8195 2.39682 13.8659 2.38331 13.9134 2.38331C13.9609 2.38331 14.0073 2.39682 14.0474 2.42225C14.0875 2.44769 14.1195 2.48401 14.1397 2.52696L17.0334 9.44696C17.1567 9.74075 17.3578 9.99532 17.6151 10.1832C17.8723 10.3711 18.176 10.4852 18.4934 10.5132L25.9272 11.1557C25.9763 11.1583 26.0233 11.1764 26.0615 11.2074C26.0997 11.2384 26.127 11.2807 26.1397 11.3282C26.1571 11.3755 26.1599 11.4269 26.1476 11.4757C26.1353 11.5246 26.1086 11.5686 26.0709 11.602Z" fill="black"/>
</svg>
